# xmcd CD database file
#
# Track frame offsets:
#	150
#	32249
#	44297
#	57427
#	68001
#	81085
#	95542
#	110277
#	124232
#	137139
#	148727
#	160272
#	175105
#	183260
#	193735
#	207565
#	224162
#	241690
#	253957
#	267595
#	281800
#	294640
#	307022
#
# Disc length: 4247 seconds
#
# Revision: 0
# Processed by: cddbd v1.5.2PL0 Copyright (c) Steve Scherf et al.
# Submitted via: CDex 1.70beta3
#
DISCID=74109517
DTITLE=Les McCann - Les McCann Plays The Hits and Bucket O' Grease
DYEAR=1966
DGENRE=Jazz
TTITLE0=Sunny (Part 1)
TTITLE1=Sunny (Part 2)
TTITLE2=Guantanamera
TTITLE3=Summer Samba (So Nice)
TTITLE4=Sad Little Girl
TTITLE5=River Deep, Mountain High
TTITLE6=Les Skate
TTITLE7=Sunshine Superman
TTITLE8=Message To Michael
TTITLE9=Flamingo
TTITLE10=Compared To What
TTITLE11=Pretty Flamingo
TTITLE12=Hey Leroy, Your Mama's Callin' You
TTITLE13=Bang! Bang!
TTITLE14=Music To Watch Girls By
TTITLE15=Watermelon Man
TTITLE16=La Brea
TTITLE17=All
TTITLE18=Red Top
TTITLE19=Yesterday
TTITLE20=Boo-Go-Loo
TTITLE21=Bucket O' Grease
TTITLE22=Fake Out
EXTD=YEAR: 1966
EXTT0=
EXTT1=
EXTT2=
EXTT3=
EXTT4=
EXTT5=
EXTT6=
EXTT7=
EXTT8=
EXTT9=
EXTT10=
EXTT11=
EXTT12=
EXTT13=
EXTT14=
EXTT15=
EXTT16=
EXTT17=
EXTT18=
EXTT19=
EXTT20=
EXTT21=
EXTT22=
PLAYORDER=
